<?xml version="1.0" encoding="UTF-8" standalone="no"?>
<!DOCTYPE svg PUBLIC "-//W3C//DTD SVG 1.1//EN"
 "http://www.w3.org/Graphics/SVG/1.1/DTD/svg11.dtd">
<!-- Generated by graphviz version 2.40.1 (20161225.0304)
 -->
<!-- Title: controllers_diagram Pages: 1 -->
<svg width="385pt" height="220pt"
 viewBox="0.00 0.00 385.38 220.00" xmlns="http://www.w3.org/2000/svg" xmlns:xlink="http://www.w3.org/1999/xlink">
<g id="graph0" class="graph" transform="scale(1 1) rotate(0) translate(4 216)">
<title>controllers_diagram</title>
<polygon fill="transparent" stroke="transparent" points="-4,4 -4,-216 381.3755,-216 381.3755,4 -4,4"/>
<!-- _diagram_info -->
<g id="node1" class="node">
<title>_diagram_info</title>
<text text-anchor="start" x="178" y="-75.6" font-family="Times,serif" font-size="13.00" fill="#000000">Controllers diagram</text>
<text text-anchor="start" x="178" y="-62.6" font-family="Times,serif" font-size="13.00" fill="#000000">Date: Feb 15 2018 &#45; 22:14</text>
<text text-anchor="start" x="178" y="-49.6" font-family="Times,serif" font-size="13.00" fill="#000000">Migration version: 20180129230544</text>
<text text-anchor="start" x="178" y="-36.6" font-family="Times,serif" font-size="13.00" fill="#000000">Generated by RailRoady 1.5.3</text>
<text text-anchor="start" x="178" y="-23.6" font-family="Times,serif" font-size="13.00" fill="#000000">http://railroady.prestonlee.com</text>
</g>
<!-- DocumentsController -->
<g id="node2" class="node">
<title>DocumentsController</title>
<path fill="none" stroke="#000000" d="M12,-.5C12,-.5 125.3105,-.5 125.3105,-.5 131.3105,-.5 137.3105,-6.5 137.3105,-12.5 137.3105,-12.5 137.3105,-190.5 137.3105,-190.5 137.3105,-196.5 131.3105,-202.5 125.3105,-202.5 125.3105,-202.5 12,-202.5 12,-202.5 6,-202.5 0,-196.5 0,-190.5 0,-190.5 0,-12.5 0,-12.5 0,-6.5 6,-.5 12,-.5"/>
<text text-anchor="middle" x="68.6553" y="-187.3" font-family="Times,serif" font-size="14.00" fill="#000000">DocumentsController</text>
<polyline fill="none" stroke="#000000" points="0,-180.5 137.3105,-180.5 "/>
<text text-anchor="start" x="8" y="-165.3" font-family="Times,serif" font-size="14.00" fill="#000000">update</text>
<text text-anchor="start" x="8" y="-151.3" font-family="Times,serif" font-size="14.00" fill="#000000">delete</text>
<text text-anchor="start" x="8" y="-137.3" font-family="Times,serif" font-size="14.00" fill="#000000">destroy</text>
<text text-anchor="start" x="8" y="-123.3" font-family="Times,serif" font-size="14.00" fill="#000000">edit</text>
<text text-anchor="start" x="8" y="-109.3" font-family="Times,serif" font-size="14.00" fill="#000000">index</text>
<text text-anchor="start" x="8" y="-95.3" font-family="Times,serif" font-size="14.00" fill="#000000">new</text>
<text text-anchor="start" x="8" y="-81.3" font-family="Times,serif" font-size="14.00" fill="#000000">share</text>
<text text-anchor="start" x="8" y="-67.3" font-family="Times,serif" font-size="14.00" fill="#000000">show</text>
<text text-anchor="start" x="8" y="-53.3" font-family="Times,serif" font-size="14.00" fill="#000000">create</text>
<polyline fill="none" stroke="#000000" points="0,-46.5 137.3105,-46.5 "/>
<polyline fill="none" stroke="#000000" points="0,-22.5 137.3105,-22.5 "/>
<text text-anchor="start" x="8" y="-7.3" font-family="Times,serif" font-size="14.00" fill="#000000">_layout</text>
</g>
<!-- ApplicationController -->
<g id="node3" class="node">
<title>ApplicationController</title>
<path fill="none" stroke="#000000" d="M182,-119.5C182,-119.5 297.6416,-119.5 297.6416,-119.5 303.6416,-119.5 309.6416,-125.5 309.6416,-131.5 309.6416,-131.5 309.6416,-199.5 309.6416,-199.5 309.6416,-205.5 303.6416,-211.5 297.6416,-211.5 297.6416,-211.5 182,-211.5 182,-211.5 176,-211.5 170,-205.5 170,-199.5 170,-199.5 170,-131.5 170,-131.5 170,-125.5 176,-119.5 182,-119.5"/>
<text text-anchor="middle" x="239.8208" y="-196.3" font-family="Times,serif" font-size="14.00" fill="#000000">ApplicationController</text>
<polyline fill="none" stroke="#000000" points="170,-189.5 309.6416,-189.5 "/>
<polyline fill="none" stroke="#000000" points="170,-165.5 309.6416,-165.5 "/>
<polyline fill="none" stroke="#000000" points="170,-141.5 309.6416,-141.5 "/>
<text text-anchor="start" x="178" y="-126.3" font-family="Times,serif" font-size="14.00" fill="#000000">_layout</text>
</g>
</g>
</svg>
