<?xml version="1.0" encoding="UTF-8" standalone="no"?>
<!DOCTYPE svg PUBLIC "-//W3C//DTD SVG 1.1//EN"
 "http://www.w3.org/Graphics/SVG/1.1/DTD/svg11.dtd">
<!-- Generated by graphviz version 2.40.1 (20161225.0304)
 -->
<!-- Title: models_diagram Pages: 1 -->
<svg width="626pt" height="552pt"
 viewBox="0.00 0.00 626.08 552.00" xmlns="http://www.w3.org/2000/svg" xmlns:xlink="http://www.w3.org/1999/xlink">
<g id="graph0" class="graph" transform="scale(1 1) rotate(0) translate(4 548)">
<title>models_diagram</title>
<polygon fill="transparent" stroke="transparent" points="-4,4 -4,-548 622.0835,-548 622.0835,4 -4,4"/>
<!-- _diagram_info -->
<g id="node1" class="node">
<title>_diagram_info</title>
<text text-anchor="start" x="8" y="-459.6" font-family="Times,serif" font-size="13.00" fill="#000000">Models diagram</text>
<text text-anchor="start" x="8" y="-446.6" font-family="Times,serif" font-size="13.00" fill="#000000">Date: Feb 15 2018 &#45; 22:13</text>
<text text-anchor="start" x="8" y="-433.6" font-family="Times,serif" font-size="13.00" fill="#000000">Migration version: 20180129230544</text>
<text text-anchor="start" x="8" y="-420.6" font-family="Times,serif" font-size="13.00" fill="#000000">Generated by RailRoady 1.5.3</text>
<text text-anchor="start" x="8" y="-407.6" font-family="Times,serif" font-size="13.00" fill="#000000">http://railroady.prestonlee.com</text>
</g>
<!-- UserProfile -->
<g id="node2" class="node">
<title>UserProfile</title>
<path fill="none" stroke="#000000" d="M45.134,-152.5C45.134,-152.5 178.2415,-152.5 178.2415,-152.5 184.2415,-152.5 190.2415,-158.5 190.2415,-164.5 190.2415,-164.5 190.2415,-268.5 190.2415,-268.5 190.2415,-274.5 184.2415,-280.5 178.2415,-280.5 178.2415,-280.5 45.134,-280.5 45.134,-280.5 39.134,-280.5 33.134,-274.5 33.134,-268.5 33.134,-268.5 33.134,-164.5 33.134,-164.5 33.134,-158.5 39.134,-152.5 45.134,-152.5"/>
<text text-anchor="middle" x="111.6877" y="-265.3" font-family="Times,serif" font-size="14.00" fill="#000000">UserProfile</text>
<polyline fill="none" stroke="#000000" points="33.134,-258.5 190.2415,-258.5 "/>
<text text-anchor="start" x="41.134" y="-243.3" font-family="Times,serif" font-size="14.00" fill="#000000">id :bigint(20)</text>
<text text-anchor="start" x="41.134" y="-229.3" font-family="Times,serif" font-size="14.00" fill="#000000">user_id :int(11)</text>
<text text-anchor="start" x="41.134" y="-215.3" font-family="Times,serif" font-size="14.00" fill="#000000">name :varchar(255)</text>
<text text-anchor="start" x="41.134" y="-201.3" font-family="Times,serif" font-size="14.00" fill="#000000">qr_id :varchar(255)</text>
<text text-anchor="start" x="41.134" y="-187.3" font-family="Times,serif" font-size="14.00" fill="#000000">firebase_id :varchar(255)</text>
<text text-anchor="start" x="41.134" y="-173.3" font-family="Times,serif" font-size="14.00" fill="#000000">created_at :datetime</text>
<text text-anchor="start" x="41.134" y="-159.3" font-family="Times,serif" font-size="14.00" fill="#000000">updated_at :datetime</text>
</g>
<!-- Document -->
<g id="node3" class="node">
<title>Document</title>
<path fill="none" stroke="#000000" d="M220.5857,-152.5C220.5857,-152.5 384.7898,-152.5 384.7898,-152.5 390.7898,-152.5 396.7898,-158.5 396.7898,-164.5 396.7898,-164.5 396.7898,-268.5 396.7898,-268.5 396.7898,-274.5 390.7898,-280.5 384.7898,-280.5 384.7898,-280.5 220.5857,-280.5 220.5857,-280.5 214.5857,-280.5 208.5857,-274.5 208.5857,-268.5 208.5857,-268.5 208.5857,-164.5 208.5857,-164.5 208.5857,-158.5 214.5857,-152.5 220.5857,-152.5"/>
<text text-anchor="middle" x="302.6877" y="-265.3" font-family="Times,serif" font-size="14.00" fill="#000000">Document</text>
<polyline fill="none" stroke="#000000" points="208.5857,-258.5 396.7898,-258.5 "/>
<text text-anchor="start" x="216.5857" y="-243.3" font-family="Times,serif" font-size="14.00" fill="#000000">id :bigint(20)</text>
<text text-anchor="start" x="216.5857" y="-229.3" font-family="Times,serif" font-size="14.00" fill="#000000">user_id :int(11)</text>
<text text-anchor="start" x="216.5857" y="-215.3" font-family="Times,serif" font-size="14.00" fill="#000000">document_name :varchar(255)</text>
<text text-anchor="start" x="216.5857" y="-201.3" font-family="Times,serif" font-size="14.00" fill="#000000">url :varchar(255)</text>
<text text-anchor="start" x="216.5857" y="-187.3" font-family="Times,serif" font-size="14.00" fill="#000000">visible :tinyint(1)</text>
<text text-anchor="start" x="216.5857" y="-173.3" font-family="Times,serif" font-size="14.00" fill="#000000">created_at :datetime</text>
<text text-anchor="start" x="216.5857" y="-159.3" font-family="Times,serif" font-size="14.00" fill="#000000">updated_at :datetime</text>
</g>
<!-- SharedDocument -->
<g id="node4" class="node">
<title>SharedDocument</title>
<path fill="none" stroke="#000000" d="M247.6492,-.5C247.6492,-.5 357.7263,-.5 357.7263,-.5 363.7263,-.5 369.7263,-6.5 369.7263,-12.5 369.7263,-12.5 369.7263,-102.5 369.7263,-102.5 369.7263,-108.5 363.7263,-114.5 357.7263,-114.5 357.7263,-114.5 247.6492,-114.5 247.6492,-114.5 241.6492,-114.5 235.6492,-108.5 235.6492,-102.5 235.6492,-102.5 235.6492,-12.5 235.6492,-12.5 235.6492,-6.5 241.6492,-.5 247.6492,-.5"/>
<text text-anchor="middle" x="302.6877" y="-99.3" font-family="Times,serif" font-size="14.00" fill="#000000">SharedDocument</text>
<polyline fill="none" stroke="#000000" points="235.6492,-92.5 369.7263,-92.5 "/>
<text text-anchor="start" x="243.6492" y="-77.3" font-family="Times,serif" font-size="14.00" fill="#000000">id :bigint(20)</text>
<text text-anchor="start" x="243.6492" y="-63.3" font-family="Times,serif" font-size="14.00" fill="#000000">sender_id :int(11)</text>
<text text-anchor="start" x="243.6492" y="-49.3" font-family="Times,serif" font-size="14.00" fill="#000000">receiver_id :int(11)</text>
<text text-anchor="start" x="243.6492" y="-35.3" font-family="Times,serif" font-size="14.00" fill="#000000">document_id :int(11)</text>
<text text-anchor="start" x="243.6492" y="-21.3" font-family="Times,serif" font-size="14.00" fill="#000000">created_at :datetime</text>
<text text-anchor="start" x="243.6492" y="-7.3" font-family="Times,serif" font-size="14.00" fill="#000000">updated_at :datetime</text>
</g>
<!-- Document&#45;&gt;SharedDocument -->
<g id="edge1" class="edge">
<title>Document&#45;&gt;SharedDocument</title>
<path fill="none" stroke="#ac7256" d="M302.6877,-144.024C302.6877,-137.5311 302.6877,-130.9752 302.6877,-124.5314"/>
<ellipse fill="none" stroke="#ac7256" cx="302.6878" cy="-148.2869" rx="4" ry="4"/>
<polygon fill="#ac7256" stroke="#ac7256" points="302.6878,-124.5228 307.1877,-114.5228 302.6878,-119.5228 302.6877,-114.5228 302.6877,-114.5228 302.6877,-114.5228 302.6878,-119.5228 298.1877,-114.5228 302.6878,-124.5228 302.6878,-124.5228"/>
</g>
<!-- ApplicationRecord -->
<g id="node5" class="node">
<title>ApplicationRecord</title>
<ellipse fill="none" stroke="#000000" cx="540.6877" cy="-437.5" rx="77.2916" ry="18"/>
<text text-anchor="middle" x="540.6877" y="-433.3" font-family="Times,serif" font-size="14.00" fill="#000000">ApplicationRecord</text>
</g>
<!-- User -->
<g id="node6" class="node">
<title>User</title>
<path fill="none" stroke="#000000" d="M237.6409,-331.5C237.6409,-331.5 433.7346,-331.5 433.7346,-331.5 439.7346,-331.5 445.7346,-337.5 445.7346,-343.5 445.7346,-343.5 445.7346,-531.5 445.7346,-531.5 445.7346,-537.5 439.7346,-543.5 433.7346,-543.5 433.7346,-543.5 237.6409,-543.5 237.6409,-543.5 231.6409,-543.5 225.6409,-537.5 225.6409,-531.5 225.6409,-531.5 225.6409,-343.5 225.6409,-343.5 225.6409,-337.5 231.6409,-331.5 237.6409,-331.5"/>
<text text-anchor="middle" x="335.6877" y="-528.3" font-family="Times,serif" font-size="14.00" fill="#000000">User</text>
<polyline fill="none" stroke="#000000" points="225.6409,-521.5 445.7346,-521.5 "/>
<text text-anchor="start" x="233.6409" y="-506.3" font-family="Times,serif" font-size="14.00" fill="#000000">updated_at :datetime</text>
<text text-anchor="start" x="233.6409" y="-492.3" font-family="Times,serif" font-size="14.00" fill="#000000">email :varchar(255)</text>
<text text-anchor="start" x="233.6409" y="-478.3" font-family="Times,serif" font-size="14.00" fill="#000000">encrypted_password :varchar(255)</text>
<text text-anchor="start" x="233.6409" y="-464.3" font-family="Times,serif" font-size="14.00" fill="#000000">reset_password_token :varchar(255)</text>
<text text-anchor="start" x="233.6409" y="-450.3" font-family="Times,serif" font-size="14.00" fill="#000000">reset_password_sent_at :datetime</text>
<text text-anchor="start" x="233.6409" y="-436.3" font-family="Times,serif" font-size="14.00" fill="#000000">remember_created_at :datetime</text>
<text text-anchor="start" x="233.6409" y="-422.3" font-family="Times,serif" font-size="14.00" fill="#000000">sign_in_count :int(11)</text>
<text text-anchor="start" x="233.6409" y="-408.3" font-family="Times,serif" font-size="14.00" fill="#000000">current_sign_in_at :datetime</text>
<text text-anchor="start" x="233.6409" y="-394.3" font-family="Times,serif" font-size="14.00" fill="#000000">last_sign_in_at :datetime</text>
<text text-anchor="start" x="233.6409" y="-380.3" font-family="Times,serif" font-size="14.00" fill="#000000">current_sign_in_ip :varchar(255)</text>
<text text-anchor="start" x="233.6409" y="-366.3" font-family="Times,serif" font-size="14.00" fill="#000000">last_sign_in_ip :varchar(255)</text>
<text text-anchor="start" x="233.6409" y="-352.3" font-family="Times,serif" font-size="14.00" fill="#000000">created_at :datetime</text>
<text text-anchor="start" x="233.6409" y="-338.3" font-family="Times,serif" font-size="14.00" fill="#000000">id :bigint(20)</text>
</g>
<!-- User&#45;&gt;UserProfile -->
<g id="edge2" class="edge">
<title>User&#45;&gt;UserProfile</title>
<path fill="none" stroke="#10e66b" d="M222.2126,-325.5446C208.701,-312.214 195.2181,-298.9116 182.5505,-286.4137"/>
<ellipse fill="none" stroke="#10e66b" cx="225.105" cy="-328.3983" rx="4" ry="4"/>
<ellipse fill="#10e66b" stroke="#10e66b" cx="179.6379" cy="-283.5401" rx="4" ry="4"/>
</g>
<!-- User&#45;&gt;Document -->
<g id="edge3" class="edge">
<title>User&#45;&gt;Document</title>
<path fill="none" stroke="#a5e0cf" d="M318.6081,-323.1179C316.9779,-312.2007 315.3553,-301.334 313.804,-290.9449"/>
<ellipse fill="none" stroke="#a5e0cf" cx="319.2252" cy="-327.2515" rx="4" ry="4"/>
<polygon fill="#a5e0cf" stroke="#a5e0cf" points="313.7557,-290.6212 316.7294,-280.0662 313.0172,-285.676 312.2788,-280.7308 312.2788,-280.7308 312.2788,-280.7308 313.0172,-285.676 307.8281,-281.3954 313.7557,-290.6212 313.7557,-290.6212"/>
</g>
<!-- SharedFile -->
<g id="node7" class="node">
<title>SharedFile</title>
<ellipse fill="none" stroke="#000000" cx="463.6877" cy="-216.5" rx="48.3427" ry="18"/>
<text text-anchor="middle" x="463.6877" y="-212.3" font-family="Times,serif" font-size="14.00" fill="#000000">SharedFile</text>
</g>
<!-- User&#45;&gt;SharedFile -->
<g id="edge4" class="edge">
<title>User&#45;&gt;SharedFile</title>
<path fill="none" stroke="#744ca4" d="M360.717,-323.8524C364.9815,-315.0214 369.972,-306.5984 375.8118,-299 385.2582,-286.7087 393.7352,-290.8715 405.6877,-281 419.6894,-269.4361 433.3694,-254.4552 443.924,-241.8422"/>
<ellipse fill="none" stroke="#744ca4" cx="358.9591" cy="-327.7163" rx="4" ry="4"/>
<polygon fill="#744ca4" stroke="#744ca4" points="444.046,-241.6931 453.8625,-236.8057 447.2132,-237.8241 450.3805,-233.9552 450.3805,-233.9552 450.3805,-233.9552 447.2132,-237.8241 446.8985,-231.1047 444.046,-241.6931 444.046,-241.6931"/>
<text text-anchor="middle" x="405.6257" y="-301.8" font-family="Times,serif" font-size="14.00" fill="#000000">sender_ids</text>
</g>
<!-- User&#45;&gt;SharedFile -->
<g id="edge5" class="edge">
<title>User&#45;&gt;SharedFile</title>
<path fill="none" stroke="#76bf3c" d="M429.4966,-324.2135C431.6682,-320.4892 433.7391,-316.7471 435.6877,-313 446.9447,-291.3537 454.259,-264.5558 458.5787,-244.6965"/>
<ellipse fill="none" stroke="#76bf3c" cx="427.2643" cy="-327.9231" rx="4" ry="4"/>
<polygon fill="#76bf3c" stroke="#76bf3c" points="458.6133,-244.5275 465.0313,-235.6359 459.6182,-239.6295 460.6231,-234.7315 460.6231,-234.7315 460.6231,-234.7315 459.6182,-239.6295 456.2149,-233.8271 458.6133,-244.5275 458.6133,-244.5275"/>
<text text-anchor="middle" x="474.8914" y="-301.8" font-family="Times,serif" font-size="14.00" fill="#000000">receiver_ids</text>
</g>
</g>
</svg>
