<?xml version="1.0" encoding="UTF-8" standalone="no"?>
<!DOCTYPE svg PUBLIC "-//W3C//DTD SVG 1.1//EN"
 "http://www.w3.org/Graphics/SVG/1.1/DTD/svg11.dtd">
<!-- Generated by graphviz version 2.40.1 (20161225.0304)
 -->
<!-- Title: models_diagram Pages: 1 -->
<svg width="460pt" height="240pt"
 viewBox="0.00 0.00 460.08 240.00" xmlns="http://www.w3.org/2000/svg" xmlns:xlink="http://www.w3.org/1999/xlink">
<g id="graph0" class="graph" transform="scale(1 1) rotate(0) translate(4 236)">
<title>models_diagram</title>
<polygon fill="transparent" stroke="transparent" points="-4,4 -4,-236 456.0835,-236 456.0835,4 -4,4"/>
<!-- _diagram_info -->
<g id="node1" class="node">
<title>_diagram_info</title>
<text text-anchor="start" x="8" y="-217.6" font-family="Times,serif" font-size="13.00" fill="#000000">Models diagram</text>
<text text-anchor="start" x="8" y="-204.6" font-family="Times,serif" font-size="13.00" fill="#000000">Date: Feb 15 2018 &#45; 22:13</text>
<text text-anchor="start" x="8" y="-191.6" font-family="Times,serif" font-size="13.00" fill="#000000">Migration version: 20180129230544</text>
<text text-anchor="start" x="8" y="-178.6" font-family="Times,serif" font-size="13.00" fill="#000000">Generated by RailRoady 1.5.3</text>
<text text-anchor="start" x="8" y="-165.6" font-family="Times,serif" font-size="13.00" fill="#000000">http://railroady.prestonlee.com</text>
</g>
<!-- UserProfile -->
<g id="node2" class="node">
<title>UserProfile</title>
<ellipse fill="none" stroke="#000000" cx="122.6877" cy="-91" rx="50.281" ry="18"/>
<text text-anchor="middle" x="122.6877" y="-86.8" font-family="Times,serif" font-size="14.00" fill="#000000">UserProfile</text>
</g>
<!-- Document -->
<g id="node3" class="node">
<title>Document</title>
<ellipse fill="none" stroke="#000000" cx="237.6877" cy="-91" rx="46.8891" ry="18"/>
<text text-anchor="middle" x="237.6877" y="-86.8" font-family="Times,serif" font-size="14.00" fill="#000000">Document</text>
</g>
<!-- SharedDocument -->
<g id="node4" class="node">
<title>SharedDocument</title>
<ellipse fill="none" stroke="#000000" cx="237.6877" cy="-18" rx="71.5031" ry="18"/>
<text text-anchor="middle" x="237.6877" y="-13.8" font-family="Times,serif" font-size="14.00" fill="#000000">SharedDocument</text>
</g>
<!-- Document&#45;&gt;SharedDocument -->
<g id="edge1" class="edge">
<title>Document&#45;&gt;SharedDocument</title>
<path fill="none" stroke="#7fbe81" d="M237.6877,-64.9079C237.6877,-58.9427 237.6877,-52.5729 237.6877,-46.512"/>
<ellipse fill="none" stroke="#7fbe81" cx="237.6878" cy="-68.9551" rx="4" ry="4"/>
<polygon fill="#7fbe81" stroke="#7fbe81" points="237.6878,-46.0904 242.1877,-36.0903 237.6878,-41.0904 237.6877,-36.0904 237.6877,-36.0904 237.6877,-36.0904 237.6878,-41.0904 233.1877,-36.0904 237.6878,-46.0904 237.6878,-46.0904"/>
</g>
<!-- ApplicationRecord -->
<g id="node5" class="node">
<title>ApplicationRecord</title>
<ellipse fill="none" stroke="#000000" cx="374.6877" cy="-195.5" rx="77.2916" ry="18"/>
<text text-anchor="middle" x="374.6877" y="-191.3" font-family="Times,serif" font-size="14.00" fill="#000000">ApplicationRecord</text>
</g>
<!-- User -->
<g id="node6" class="node">
<title>User</title>
<ellipse fill="none" stroke="#000000" cx="252.6877" cy="-195.5" rx="27" ry="18"/>
<text text-anchor="middle" x="252.6877" y="-191.3" font-family="Times,serif" font-size="14.00" fill="#000000">User</text>
</g>
<!-- User&#45;&gt;UserProfile -->
<g id="edge2" class="edge">
<title>User&#45;&gt;UserProfile</title>
<path fill="none" stroke="#0fb801" d="M232.7938,-174.1368C227.702,-169.0072 222.1247,-163.6664 216.6877,-159 196.6772,-141.8255 172.5489,-124.4326 153.7482,-111.5365"/>
<ellipse fill="none" stroke="#0fb801" cx="235.7202" cy="-177.1426" rx="4" ry="4"/>
<ellipse fill="#0fb801" stroke="#0fb801" cx="150.3868" cy="-109.2484" rx="4" ry="4"/>
</g>
<!-- User&#45;&gt;Document -->
<g id="edge3" class="edge">
<title>User&#45;&gt;Document</title>
<path fill="none" stroke="#d53e93" d="M248.903,-169.1326C246.7107,-153.8597 243.9518,-134.6394 241.7189,-119.084"/>
<ellipse fill="none" stroke="#d53e93" cx="249.5066" cy="-173.3381" rx="4" ry="4"/>
<polygon fill="#d53e93" stroke="#d53e93" points="241.6915,-118.8925 244.7249,-108.3545 240.9811,-113.9432 240.2706,-108.9939 240.2706,-108.9939 240.2706,-108.9939 240.9811,-113.9432 235.8163,-109.6333 241.6915,-118.8925 241.6915,-118.8925"/>
</g>
<!-- SharedFile -->
<g id="node7" class="node">
<title>SharedFile</title>
<ellipse fill="none" stroke="#000000" cx="351.6877" cy="-91" rx="48.3427" ry="18"/>
<text text-anchor="middle" x="351.6877" y="-86.8" font-family="Times,serif" font-size="14.00" fill="#000000">SharedFile</text>
</g>
<!-- User&#45;&gt;SharedFile -->
<g id="edge4" class="edge">
<title>User&#45;&gt;SharedFile</title>
<path fill="none" stroke="#5e39b6" d="M254.276,-168.9821C256.3455,-155.1067 260.9054,-138.6348 270.8118,-127 278.9072,-117.4921 290.0107,-110.3931 301.3974,-105.1317"/>
<ellipse fill="none" stroke="#5e39b6" cx="253.7621" cy="-173.2482" rx="4" ry="4"/>
<polygon fill="#5e39b6" stroke="#5e39b6" points="301.7423,-104.9877 312.7042,-105.2839 306.3557,-103.0598 310.969,-101.1318 310.969,-101.1318 310.969,-101.1318 306.3557,-103.0598 309.2339,-96.9798 301.7423,-104.9877 301.7423,-104.9877"/>
<text text-anchor="middle" x="300.6257" y="-129.8" font-family="Times,serif" font-size="14.00" fill="#000000">sender_ids</text>
</g>
<!-- User&#45;&gt;SharedFile -->
<g id="edge5" class="edge">
<title>User&#45;&gt;SharedFile</title>
<path fill="none" stroke="#802fb8" d="M271.6287,-173.5233C276.8069,-168.3273 282.663,-163.1093 288.6877,-159 305.4654,-147.5564 316.3796,-155.4125 330.6877,-141 336.8183,-134.8247 341.2594,-126.5914 344.4319,-118.5909"/>
<ellipse fill="none" stroke="#802fb8" cx="268.651" cy="-176.649" rx="4" ry="4"/>
<polygon fill="#802fb8" stroke="#802fb8" points="344.4438,-118.5563 351.9554,-110.5672 346.0722,-113.8289 347.7007,-109.1015 347.7007,-109.1015 347.7007,-109.1015 346.0722,-113.8289 343.4461,-107.6359 344.4438,-118.5563 344.4438,-118.5563"/>
<text text-anchor="middle" x="373.8914" y="-129.8" font-family="Times,serif" font-size="14.00" fill="#000000">receiver_ids</text>
</g>
</g>
</svg>
